<mxfile host="app.diagrams.net" modified="2024-03-28T06:40:29.343Z" agent="Mozilla/5.0 (Windows NT 10.0; Win64; x64) AppleWebKit/537.36 (KHTML, like Gecko) Chrome/122.0.0.0 Safari/537.36 Edg/122.0.0.0" etag="lvaEq6h1cXOacdHXn9gw" version="24.0.4" type="github">
  <diagram name="第 1 页" id="v797rGbqXaPuHr1xUrjF">
    <mxGraphModel dx="3080" dy="1762" grid="1" gridSize="10" guides="1" tooltips="1" connect="1" arrows="1" fold="1" page="1" pageScale="1" pageWidth="827" pageHeight="1169" math="0" shadow="0">
      <root>
        <mxCell id="0" />
        <mxCell id="1" parent="0" />
        <mxCell id="fXVo95FK3dkVd09ffdzB-1" style="edgeStyle=orthogonalEdgeStyle;rounded=0;orthogonalLoop=1;jettySize=auto;html=1;exitX=0.5;exitY=1;exitDx=0;exitDy=0;entryX=0.5;entryY=0;entryDx=0;entryDy=0;" edge="1" parent="1" source="fXVo95FK3dkVd09ffdzB-2" target="fXVo95FK3dkVd09ffdzB-4">
          <mxGeometry relative="1" as="geometry" />
        </mxCell>
        <mxCell id="fXVo95FK3dkVd09ffdzB-2" value="&lt;font style=&quot;font-size: 15px;&quot;&gt;开始&lt;/font&gt;" style="rounded=0;whiteSpace=wrap;html=1;" vertex="1" parent="1">
          <mxGeometry x="320" y="470" width="120" height="60" as="geometry" />
        </mxCell>
        <mxCell id="fXVo95FK3dkVd09ffdzB-24" value="" style="edgeStyle=orthogonalEdgeStyle;rounded=0;orthogonalLoop=1;jettySize=auto;html=1;" edge="1" parent="1" source="fXVo95FK3dkVd09ffdzB-4" target="fXVo95FK3dkVd09ffdzB-9">
          <mxGeometry relative="1" as="geometry" />
        </mxCell>
        <mxCell id="fXVo95FK3dkVd09ffdzB-4" value="设定连接权值和偏置初始值" style="rounded=0;whiteSpace=wrap;html=1;fontSize=15;" vertex="1" parent="1">
          <mxGeometry x="270" y="561" width="220" height="60" as="geometry" />
        </mxCell>
        <mxCell id="fXVo95FK3dkVd09ffdzB-34" value="" style="edgeStyle=orthogonalEdgeStyle;rounded=0;orthogonalLoop=1;jettySize=auto;html=1;" edge="1" parent="1" source="fXVo95FK3dkVd09ffdzB-7" target="fXVo95FK3dkVd09ffdzB-21">
          <mxGeometry relative="1" as="geometry" />
        </mxCell>
        <mxCell id="fXVo95FK3dkVd09ffdzB-7" value="所有数据均训练完成？" style="rhombus;whiteSpace=wrap;html=1;fontSize=15;" vertex="1" parent="1">
          <mxGeometry x="264.5" y="1458" width="231" height="80" as="geometry" />
        </mxCell>
        <mxCell id="fXVo95FK3dkVd09ffdzB-26" value="" style="edgeStyle=orthogonalEdgeStyle;rounded=0;orthogonalLoop=1;jettySize=auto;html=1;" edge="1" parent="1" source="fXVo95FK3dkVd09ffdzB-8" target="fXVo95FK3dkVd09ffdzB-13">
          <mxGeometry relative="1" as="geometry" />
        </mxCell>
        <mxCell id="fXVo95FK3dkVd09ffdzB-8" value="计算隐含层各神经元的输入和输出" style="rounded=0;whiteSpace=wrap;html=1;fontSize=15;" vertex="1" parent="1">
          <mxGeometry x="250" y="742" width="260" height="60" as="geometry" />
        </mxCell>
        <mxCell id="fXVo95FK3dkVd09ffdzB-25" value="" style="edgeStyle=orthogonalEdgeStyle;rounded=0;orthogonalLoop=1;jettySize=auto;html=1;" edge="1" parent="1" source="fXVo95FK3dkVd09ffdzB-9" target="fXVo95FK3dkVd09ffdzB-8">
          <mxGeometry relative="1" as="geometry" />
        </mxCell>
        <mxCell id="fXVo95FK3dkVd09ffdzB-9" value="提供数据集，并随机选择一组数据" style="rounded=0;whiteSpace=wrap;html=1;fontSize=15;" vertex="1" parent="1">
          <mxGeometry x="255" y="651" width="250" height="60" as="geometry" />
        </mxCell>
        <mxCell id="fXVo95FK3dkVd09ffdzB-10" value="" style="endArrow=classic;html=1;rounded=0;exitX=0;exitY=0.5;exitDx=0;exitDy=0;" edge="1" parent="1" source="fXVo95FK3dkVd09ffdzB-23">
          <mxGeometry width="50" height="50" relative="1" as="geometry">
            <mxPoint x="170" y="660" as="sourcePoint" />
            <mxPoint x="380" y="640" as="targetPoint" />
            <Array as="points">
              <mxPoint x="130" y="1679" />
              <mxPoint x="130" y="640" />
            </Array>
          </mxGeometry>
        </mxCell>
        <mxCell id="fXVo95FK3dkVd09ffdzB-11" value="否" style="text;html=1;align=center;verticalAlign=middle;whiteSpace=wrap;rounded=0;fontSize=15;" vertex="1" parent="1">
          <mxGeometry x="180" y="1650" width="60" height="30" as="geometry" />
        </mxCell>
        <mxCell id="fXVo95FK3dkVd09ffdzB-12" value="否" style="text;html=1;align=center;verticalAlign=middle;whiteSpace=wrap;rounded=0;fontSize=15;" vertex="1" parent="1">
          <mxGeometry x="180" y="1470" width="60" height="26" as="geometry" />
        </mxCell>
        <mxCell id="fXVo95FK3dkVd09ffdzB-27" value="" style="edgeStyle=orthogonalEdgeStyle;rounded=0;orthogonalLoop=1;jettySize=auto;html=1;" edge="1" parent="1" source="fXVo95FK3dkVd09ffdzB-13" target="fXVo95FK3dkVd09ffdzB-14">
          <mxGeometry relative="1" as="geometry" />
        </mxCell>
        <mxCell id="fXVo95FK3dkVd09ffdzB-13" value="计算输出层各神经元的输入和输出" style="rounded=0;whiteSpace=wrap;html=1;fontSize=15;" vertex="1" parent="1">
          <mxGeometry x="250" y="833" width="260" height="60" as="geometry" />
        </mxCell>
        <mxCell id="fXVo95FK3dkVd09ffdzB-28" value="" style="edgeStyle=orthogonalEdgeStyle;rounded=0;orthogonalLoop=1;jettySize=auto;html=1;" edge="1" parent="1" source="fXVo95FK3dkVd09ffdzB-14" target="fXVo95FK3dkVd09ffdzB-15">
          <mxGeometry relative="1" as="geometry" />
        </mxCell>
        <mxCell id="fXVo95FK3dkVd09ffdzB-14" value="计算输出层各神经元的分配误差" style="rounded=0;whiteSpace=wrap;html=1;fontSize=15;" vertex="1" parent="1">
          <mxGeometry x="250" y="924" width="260" height="60" as="geometry" />
        </mxCell>
        <mxCell id="fXVo95FK3dkVd09ffdzB-29" value="" style="edgeStyle=orthogonalEdgeStyle;rounded=0;orthogonalLoop=1;jettySize=auto;html=1;" edge="1" parent="1" source="fXVo95FK3dkVd09ffdzB-15" target="fXVo95FK3dkVd09ffdzB-16">
          <mxGeometry relative="1" as="geometry" />
        </mxCell>
        <mxCell id="fXVo95FK3dkVd09ffdzB-15" value="计算隐含层各神经元的分配误差" style="rounded=0;whiteSpace=wrap;html=1;fontSize=15;" vertex="1" parent="1">
          <mxGeometry x="250" y="1014" width="260" height="60" as="geometry" />
        </mxCell>
        <mxCell id="fXVo95FK3dkVd09ffdzB-30" value="" style="edgeStyle=orthogonalEdgeStyle;rounded=0;orthogonalLoop=1;jettySize=auto;html=1;" edge="1" parent="1" source="fXVo95FK3dkVd09ffdzB-16" target="fXVo95FK3dkVd09ffdzB-17">
          <mxGeometry relative="1" as="geometry" />
        </mxCell>
        <mxCell id="fXVo95FK3dkVd09ffdzB-16" value="调整隐含层至输出层之间的连接权值及输出层各神经元的偏置" style="rounded=0;whiteSpace=wrap;html=1;fontSize=15;" vertex="1" parent="1">
          <mxGeometry x="250" y="1105" width="260" height="60" as="geometry" />
        </mxCell>
        <mxCell id="fXVo95FK3dkVd09ffdzB-31" value="" style="edgeStyle=orthogonalEdgeStyle;rounded=0;orthogonalLoop=1;jettySize=auto;html=1;" edge="1" parent="1" source="fXVo95FK3dkVd09ffdzB-17" target="fXVo95FK3dkVd09ffdzB-18">
          <mxGeometry relative="1" as="geometry" />
        </mxCell>
        <mxCell id="fXVo95FK3dkVd09ffdzB-17" value="调整输入层至隐含层之间的连接权值及隐含层各神经元的偏置" style="rounded=0;whiteSpace=wrap;html=1;fontSize=15;" vertex="1" parent="1">
          <mxGeometry x="250" y="1196" width="260" height="60" as="geometry" />
        </mxCell>
        <mxCell id="fXVo95FK3dkVd09ffdzB-32" value="" style="edgeStyle=orthogonalEdgeStyle;rounded=0;orthogonalLoop=1;jettySize=auto;html=1;" edge="1" parent="1" source="fXVo95FK3dkVd09ffdzB-18" target="fXVo95FK3dkVd09ffdzB-19">
          <mxGeometry relative="1" as="geometry" />
        </mxCell>
        <mxCell id="fXVo95FK3dkVd09ffdzB-18" value="调整输入层至隐含层之间的连接权值及隐含层各神经元的偏置" style="rounded=0;whiteSpace=wrap;html=1;fontSize=15;" vertex="1" parent="1">
          <mxGeometry x="250" y="1286" width="260" height="60" as="geometry" />
        </mxCell>
        <mxCell id="fXVo95FK3dkVd09ffdzB-33" value="" style="edgeStyle=orthogonalEdgeStyle;rounded=0;orthogonalLoop=1;jettySize=auto;html=1;" edge="1" parent="1" source="fXVo95FK3dkVd09ffdzB-19" target="fXVo95FK3dkVd09ffdzB-7">
          <mxGeometry relative="1" as="geometry" />
        </mxCell>
        <mxCell id="fXVo95FK3dkVd09ffdzB-19" value="随机选择一组未选过的数据" style="rounded=0;whiteSpace=wrap;html=1;fontSize=15;" vertex="1" parent="1">
          <mxGeometry x="250" y="1377" width="260" height="60" as="geometry" />
        </mxCell>
        <mxCell id="fXVo95FK3dkVd09ffdzB-35" value="" style="edgeStyle=orthogonalEdgeStyle;rounded=0;orthogonalLoop=1;jettySize=auto;html=1;" edge="1" parent="1" source="fXVo95FK3dkVd09ffdzB-21" target="fXVo95FK3dkVd09ffdzB-23">
          <mxGeometry relative="1" as="geometry" />
        </mxCell>
        <mxCell id="fXVo95FK3dkVd09ffdzB-21" value="更新学习次数" style="rounded=0;whiteSpace=wrap;html=1;fontSize=15;" vertex="1" parent="1">
          <mxGeometry x="250" y="1559" width="260" height="60" as="geometry" />
        </mxCell>
        <mxCell id="fXVo95FK3dkVd09ffdzB-22" value="训练结束" style="rounded=0;whiteSpace=wrap;html=1;fontSize=15;" vertex="1" parent="1">
          <mxGeometry x="250" y="1740" width="260" height="60" as="geometry" />
        </mxCell>
        <mxCell id="fXVo95FK3dkVd09ffdzB-36" value="" style="edgeStyle=orthogonalEdgeStyle;rounded=0;orthogonalLoop=1;jettySize=auto;html=1;" edge="1" parent="1" source="fXVo95FK3dkVd09ffdzB-23" target="fXVo95FK3dkVd09ffdzB-22">
          <mxGeometry relative="1" as="geometry" />
        </mxCell>
        <mxCell id="fXVo95FK3dkVd09ffdzB-23" value="E&amp;lt;ε或学习次数完成？" style="rhombus;whiteSpace=wrap;html=1;fontSize=15;" vertex="1" parent="1">
          <mxGeometry x="264.5" y="1639" width="231" height="80" as="geometry" />
        </mxCell>
        <mxCell id="fXVo95FK3dkVd09ffdzB-38" value="" style="endArrow=classic;html=1;rounded=0;exitX=0;exitY=0.5;exitDx=0;exitDy=0;" edge="1" parent="1" source="fXVo95FK3dkVd09ffdzB-7">
          <mxGeometry width="50" height="50" relative="1" as="geometry">
            <mxPoint x="400" y="1400" as="sourcePoint" />
            <mxPoint x="130" y="1500" as="targetPoint" />
          </mxGeometry>
        </mxCell>
        <mxCell id="fXVo95FK3dkVd09ffdzB-40" value="是" style="text;html=1;align=center;verticalAlign=middle;whiteSpace=wrap;rounded=0;fontSize=15;" vertex="1" parent="1">
          <mxGeometry x="380" y="1533" width="60" height="26" as="geometry" />
        </mxCell>
        <mxCell id="fXVo95FK3dkVd09ffdzB-41" value="是" style="text;html=1;align=center;verticalAlign=middle;whiteSpace=wrap;rounded=0;fontSize=15;" vertex="1" parent="1">
          <mxGeometry x="384" y="1714" width="60" height="26" as="geometry" />
        </mxCell>
      </root>
    </mxGraphModel>
  </diagram>
</mxfile>
